HIERARCHY
ROOT joint_Root
{
	OFFSET 0.0 0.0 0.0
	CHANNELS 6 Xposition Yposition Zposition Zrotation Xrotation Yrotation 
	JOINT Hips
	{
		OFFSET -0.726466 93.3139 -2.00062
		CHANNELS 6 Xposition Yposition Zposition Zrotation Xrotation Yrotation 
		JOINT Spine
		{
			OFFSET 15.7357 0.0 0.0
			CHANNELS 6 Xposition Yposition Zposition Zrotation Xrotation Yrotation 
			JOINT Chest
			{
				OFFSET 8.98455 -0.406207 0.0
				CHANNELS 6 Xposition Yposition Zposition Zrotation Xrotation Yrotation 
				JOINT Neck
				{
					OFFSET 16.3773 0.0 0.0
					CHANNELS 6 Xposition Yposition Zposition Zrotation Xrotation Yrotation 
					JOINT Head
					{
						OFFSET 6.45672 0.0 0.0
						CHANNELS 6 Xposition Yposition Zposition Zrotation Xrotation Yrotation 
						End Site
						{
							OFFSET 0.0 0.0 0.0
						}
					}
				}
				JOINT Shoulder_L
				{
					OFFSET 12.9942 -0.242716 4.98039
					CHANNELS 6 Xposition Yposition Zposition Zrotation Xrotation Yrotation 
					JOINT UpperArm_L
					{
						OFFSET 5.34809 0.0 0.0
						CHANNELS 6 Xposition Yposition Zposition Zrotation Xrotation Yrotation 
						JOINT LowerArm_L
						{
							OFFSET 24.3286 1.87007e-05 0.0
							CHANNELS 6 Xposition Yposition Zposition Zrotation Xrotation Yrotation 
							JOINT Hand_L
							{
								OFFSET 22.2916 0.0 0.0
								CHANNELS 6 Xposition Yposition Zposition Zrotation Xrotation Yrotation 
								End Site
								{
									OFFSET 0.0 0.0 0.0
								}
							}
						}
					}
				}
				JOINT Shoulder_R
				{
					OFFSET 12.9945 -0.242716 -4.98039
					CHANNELS 6 Xposition Yposition Zposition Zrotation Xrotation Yrotation 
					JOINT UpperArm_R
					{
						OFFSET -5.34813 0.0 0.0
						CHANNELS 6 Xposition Yposition Zposition Zrotation Xrotation Yrotation 
						JOINT LowerArm_R
						{
							OFFSET -24.3289 0.000322201 0.0
							CHANNELS 6 Xposition Yposition Zposition Zrotation Xrotation Yrotation 
							JOINT Hand_R
							{
								OFFSET -22.2915 -0.000108084 0.0
								CHANNELS 6 Xposition Yposition Zposition Zrotation Xrotation Yrotation 
								End Site
								{
									OFFSET 0.0 0.0 0.0
								}
							}
						}
					}
				}
			}
		}
		JOINT UpperLeg_L
		{
			OFFSET -2.19248 -6.46944 0.0
			CHANNELS 6 Xposition Yposition Zposition Zrotation Xrotation Yrotation 
			JOINT LowerLeg_L
			{
				OFFSET 39.0811 0.0 -1.23785e-05
				CHANNELS 6 Xposition Yposition Zposition Zrotation Xrotation Yrotation 
				JOINT Foot_L
				{
					OFFSET 40.9854 0.0 -1.26872e-05
					CHANNELS 6 Xposition Yposition Zposition Zrotation Xrotation Yrotation 
					JOINT Toes_L
					{
						OFFSET 11.7543 0.0 0.0
						CHANNELS 6 Xposition Yposition Zposition Zrotation Xrotation Yrotation 
						End Site
						{
							OFFSET 0.0 0.0 0.0
						}
					}
				}
			}
		}
		JOINT UpperLeg_R
		{
			OFFSET -2.19251 6.46944 0.0
			CHANNELS 6 Xposition Yposition Zposition Zrotation Xrotation Yrotation 
			JOINT LowerLeg_R
			{
				OFFSET -39.0811 -0.00228153 -0.0401928
				CHANNELS 6 Xposition Yposition Zposition Zrotation Xrotation Yrotation 
				JOINT Foot_R
				{
					OFFSET -40.9854 0.0 0.0
					CHANNELS 6 Xposition Yposition Zposition Zrotation Xrotation Yrotation 
					JOINT Toes_R
					{
						OFFSET -11.7543 0.0 0.0
						CHANNELS 6 Xposition Yposition Zposition Zrotation Xrotation Yrotation 
						End Site
						{
							OFFSET 0.0 0.0 0.0
						}
					}
				}
			}
		}
	}
}
MOTION
Frames:	4
Frame Time:	0.0333333
0.000000 0.000000 0.000000 0.000000 0.000000 -0.000000 -3.537420 91.614200 -89.375300 84.470600 7.749220 -4.586000 15.735700 0.000005 -0.000001 58.147200 82.287600 -55.805400 8.984550 -0.406207 -0.000000 5.552030 -8.166870 5.081300 16.377300 -0.000001 -0.000001 0.404892 -2.235980 -1.193300 6.456720 -0.000001 -0.000000 -1.010460 2.883830 0.785030 12.994200 -0.242716 4.980390 -87.800300 -6.933340 -72.349300 5.348090 -0.000007 -0.000001 -66.763900 33.102600 -26.660800 24.328600 0.000019 0.000005 -3.154170 0.957068 -106.861000 22.291600 -0.000001 0.000005 4.289640 5.642090 -14.302900 12.994500 -0.242716 -4.980390 89.113200 1.947770 -65.512400 -5.348130 -0.000001 -0.000004 -74.892100 44.637000 12.293000 -24.328900 0.000322 -0.000009 -4.198440 -0.344406 -85.314900 -22.291500 -0.000108 -0.000004 15.652700 5.659870 -16.040500 -2.192480 -6.469440 -0.000000 -172.802000 -3.556850 1.359960 39.081100 -0.000007 -0.000012 0.012306 -0.021113 30.234200 40.985400 -0.000006 -0.000013 4.301800 4.329930 -59.163800 11.754300 -0.000000 0.000003 -0.137671 -0.529802 -38.910500 -2.192510 6.469440 -0.000001 -169.959000 6.464700 142.394000 -39.081100 -0.002282 -0.040193 -0.035460 0.012915 71.479500 -40.985400 0.000008 0.000006 9.831790 -15.153400 -57.162800 -11.754300 -0.000006 -0.000006 -0.026528 -0.201084 -24.803300
0.000000 0.000000 0.000000 0.000000 0.000000 -0.000000 -3.948340 94.352400 -81.002800 84.752900 7.764610 -5.460030 15.735700 0.000005 -0.000001 52.983900 82.374000 -50.436500 8.984550 -0.406207 -0.000000 4.672290 -9.235070 5.475270 16.377300 -0.000001 -0.000001 1.178380 -2.175360 -1.548200 6.456720 -0.000001 -0.000000 -0.898906 3.334620 0.781215 12.994200 -0.242716 4.980390 -87.445200 -8.188810 -72.606000 5.348090 -0.000007 -0.000001 -68.918500 33.985500 -26.401900 24.328600 0.000019 0.000005 -3.062140 1.070970 -109.257000 22.291600 -0.000001 0.000005 4.172590 5.632700 -13.540300 12.994500 -0.242716 -4.980390 89.831700 0.364460 -65.219600 -5.348130 -0.000001 -0.000004 -76.961200 44.141700 16.322000 -24.328900 0.000322 -0.000009 -4.700750 -0.195914 -87.613000 -22.291500 -0.000108 -0.000004 14.618000 5.654010 -15.400600 -2.192480 -6.469440 -0.000000 -169.950000 -9.032580 5.366040 39.081100 -0.000007 -0.000012 0.030778 -0.067344 24.561600 40.985400 -0.000006 -0.000013 1.550410 10.400800 -41.107000 11.754300 -0.000000 0.000003 -0.121227 -0.494447 -37.329700 -2.192510 6.469440 -0.000001 -170.479000 6.126640 145.746000 -39.081100 -0.002282 -0.040193 0.019423 -0.013835 49.457000 -40.985400 0.000008 0.000006 7.820870 -10.171200 -60.495000 -11.754300 -0.000006 -0.000006 -0.026413 -0.200525 -24.780100
0.000000 0.000000 0.000000 0.000000 0.000000 -0.000000 -3.910040 95.275200 -72.305900 86.787800 7.829420 -6.499030 15.735700 0.000005 -0.000001 47.663300 82.509300 -45.486100 8.984550 -0.406207 -0.000000 3.553050 -10.157800 4.674480 16.377300 -0.000001 -0.000001 1.450180 -2.016160 -1.596270 6.456720 -0.000001 -0.000000 -0.854044 3.388510 0.784919 12.994200 -0.242716 4.980390 -86.961600 -9.777210 -72.642100 5.348090 -0.000007 -0.000001 -71.550300 35.478100 -25.277900 24.328600 0.000019 0.000005 -3.032880 1.129560 -110.408000 22.291600 -0.000001 0.000005 4.769900 5.624700 -12.948600 12.994500 -0.242716 -4.980390 90.790600 -1.730510 -65.438100 -5.348130 -0.000001 -0.000004 -79.356300 42.391600 19.809900 -24.328900 0.000322 -0.000009 -5.433230 0.001862 -90.013900 -22.291500 -0.000108 -0.000004 14.059100 5.645320 -14.579700 -2.192480 -6.469440 -0.000000 -170.822000 -8.570180 7.366960 39.081100 -0.000007 -0.000012 0.051986 -0.111593 24.978700 40.985400 -0.000006 -0.000013 1.026650 7.266990 -35.567200 11.754300 -0.000000 0.000003 -0.004951 -0.061002 -19.058800 -2.192510 6.469440 -0.000001 -173.025000 7.249350 150.018000 -39.081100 -0.002282 -0.040193 0.014933 -0.021785 28.090500 -40.985400 0.000008 0.000006 3.373910 -0.829226 -63.908500 -11.754300 -0.000006 -0.000006 -0.027512 -0.205828 -24.999700
0.000000 0.000000 0.000000 0.000000 0.000000 -0.000000 -3.648640 94.876900 -63.212000 89.705500 7.898710 -6.769730 15.735700 0.000005 -0.000001 45.038800 82.523200 -43.658200 8.984550 -0.406207 -0.000000 2.990160 -10.614000 3.042150 16.377300 -0.000001 -0.000001 1.051120 -2.115690 -1.507710 6.456720 -0.000001 -0.000000 -0.907773 3.123430 1.162780 12.994200 -0.242716 4.980390 -86.586900 -11.000000 -72.642200 5.348090 -0.000007 -0.000001 -73.390000 37.037800 -23.910400 24.328600 0.000019 0.000005 -2.853470 1.042690 -110.054000 22.291600 -0.000001 0.000005 4.454690 5.625660 -13.022400 12.994500 -0.242716 -4.980390 91.342800 -2.974820 -65.692800 -5.348130 -0.000001 -0.000004 -80.349900 40.455900 21.664200 -24.328900 0.000322 -0.000009 -6.188880 0.239511 -92.203300 -22.291500 -0.000108 -0.000004 13.421100 5.638060 -13.963400 -2.192480 -6.469440 -0.000000 -174.199000 -5.235460 8.243620 39.081100 -0.000007 -0.000012 0.054361 -0.087251 31.924300 40.985400 -0.000006 -0.000013 2.225050 -3.768720 -39.167500 11.754300 -0.000000 0.000003 -0.007106 -0.080579 -19.857200 -2.192510 6.469440 -0.000001 -176.098000 9.947300 153.297000 -39.081100 -0.002282 -0.040193 -0.010723 0.055064 14.318600 -40.985400 0.000008 0.000006 -1.656800 6.666670 -66.267700 -11.754300 -0.000006 -0.000006 -0.029925 -0.217120 -25.467800
